<svg width="253" height="146" viewBox="0 0 253 146" fill="none" xmlns="http://www.w3.org/2000/svg">
<g filter="url(#filter0_d_77_3147)">
<path d="M75.2 71.14C74.2267 71.14 73.3467 70.9733 72.56 70.64C71.7867 70.3067 71.1733 69.8267 70.72 69.2C70.2667 68.5733 70.0333 67.8333 70.02 66.98H73.02C73.06 67.5533 73.26 68.0067 73.62 68.34C73.9933 68.6733 74.5 68.84 75.14 68.84C75.7933 68.84 76.3067 68.6867 76.68 68.38C77.0533 68.06 77.24 67.6467 77.24 67.14C77.24 66.7267 77.1133 66.3867 76.86 66.12C76.6067 65.8533 76.2867 65.6467 75.9 65.5C75.5267 65.34 75.0067 65.1667 74.34 64.98C73.4333 64.7133 72.6933 64.4533 72.12 64.2C71.56 63.9333 71.0733 63.54 70.66 63.02C70.26 62.4867 70.06 61.78 70.06 60.9C70.06 60.0733 70.2667 59.3533 70.68 58.74C71.0933 58.1267 71.6733 57.66 72.42 57.34C73.1667 57.0067 74.02 56.84 74.98 56.84C76.42 56.84 77.5867 57.1933 78.48 57.9C79.3867 58.5933 79.8867 59.5667 79.98 60.82H76.9C76.8733 60.34 76.6667 59.9467 76.28 59.64C75.9067 59.32 75.4067 59.16 74.78 59.16C74.2333 59.16 73.7933 59.3 73.46 59.58C73.14 59.86 72.98 60.2667 72.98 60.8C72.98 61.1733 73.1 61.4867 73.34 61.74C73.5933 61.98 73.9 62.18 74.26 62.34C74.6333 62.4867 75.1533 62.66 75.82 62.86C76.7267 63.1267 77.4667 63.3933 78.04 63.66C78.6133 63.9267 79.1067 64.3267 79.52 64.86C79.9333 65.3933 80.14 66.0933 80.14 66.96C80.14 67.7067 79.9467 68.4 79.56 69.04C79.1733 69.68 78.6067 70.1933 77.86 70.58C77.1133 70.9533 76.2267 71.14 75.2 71.14ZM89.0475 71.14C87.7408 71.14 86.5408 70.8333 85.4475 70.22C84.3542 69.6067 83.4875 68.76 82.8475 67.68C82.2075 66.5867 81.8875 65.3533 81.8875 63.98C81.8875 62.62 82.2075 61.4 82.8475 60.32C83.4875 59.2267 84.3542 58.3733 85.4475 57.76C86.5408 57.1467 87.7408 56.84 89.0475 56.84C90.3675 56.84 91.5675 57.1467 92.6475 57.76C93.7408 58.3733 94.6008 59.2267 95.2275 60.32C95.8675 61.4 96.1875 62.62 96.1875 63.98C96.1875 65.3533 95.8675 66.5867 95.2275 67.68C94.6008 68.76 93.7408 69.6067 92.6475 70.22C91.5542 70.8333 90.3542 71.14 89.0475 71.14ZM89.0475 68.64C89.8875 68.64 90.6275 68.4533 91.2675 68.08C91.9075 67.6933 92.4075 67.1467 92.7675 66.44C93.1275 65.7333 93.3075 64.9133 93.3075 63.98C93.3075 63.0467 93.1275 62.2333 92.7675 61.54C92.4075 60.8333 91.9075 60.2933 91.2675 59.92C90.6275 59.5467 89.8875 59.36 89.0475 59.36C88.2075 59.36 87.4608 59.5467 86.8075 59.92C86.1675 60.2933 85.6675 60.8333 85.3075 61.54C84.9475 62.2333 84.7675 63.0467 84.7675 63.98C84.7675 64.9133 84.9475 65.7333 85.3075 66.44C85.6675 67.1467 86.1675 67.6933 86.8075 68.08C87.4608 68.4533 88.2075 68.64 89.0475 68.64ZM106.891 57.04V59.3H101.071V62.88H105.531V65.1H101.071V71H98.2706V57.04H106.891ZM118.376 57.04V59.3H114.656V71H111.856V59.3H108.136V57.04H118.376ZM135.365 61.36C135.365 62.1067 135.185 62.8067 134.825 63.46C134.478 64.1133 133.925 64.64 133.165 65.04C132.418 65.44 131.471 65.64 130.325 65.64H127.985V71H125.185V57.04H130.325C131.405 57.04 132.325 57.2267 133.085 57.6C133.845 57.9733 134.411 58.4867 134.785 59.14C135.171 59.7933 135.365 60.5333 135.365 61.36ZM130.205 63.38C130.978 63.38 131.551 63.2067 131.925 62.86C132.298 62.5 132.485 62 132.485 61.36C132.485 60 131.725 59.32 130.205 59.32H127.985V63.38H130.205ZM143.833 71.14C142.526 71.14 141.326 70.8333 140.233 70.22C139.139 69.6067 138.273 68.76 137.633 67.68C136.993 66.5867 136.673 65.3533 136.673 63.98C136.673 62.62 136.993 61.4 137.633 60.32C138.273 59.2267 139.139 58.3733 140.233 57.76C141.326 57.1467 142.526 56.84 143.833 56.84C145.153 56.84 146.353 57.1467 147.433 57.76C148.526 58.3733 149.386 59.2267 150.013 60.32C150.653 61.4 150.973 62.62 150.973 63.98C150.973 65.3533 150.653 66.5867 150.013 67.68C149.386 68.76 148.526 69.6067 147.433 70.22C146.339 70.8333 145.139 71.14 143.833 71.14ZM143.833 68.64C144.673 68.64 145.413 68.4533 146.053 68.08C146.693 67.6933 147.193 67.1467 147.553 66.44C147.913 65.7333 148.093 64.9133 148.093 63.98C148.093 63.0467 147.913 62.2333 147.553 61.54C147.193 60.8333 146.693 60.2933 146.053 59.92C145.413 59.5467 144.673 59.36 143.833 59.36C142.993 59.36 142.246 59.5467 141.593 59.92C140.953 60.2933 140.453 60.8333 140.093 61.54C139.733 62.2333 139.553 63.0467 139.553 63.98C139.553 64.9133 139.733 65.7333 140.093 66.44C140.453 67.1467 140.953 67.6933 141.593 68.08C142.246 68.4533 142.993 68.64 143.833 68.64ZM155.856 57.04V71H153.056V57.04H155.856ZM170.562 71H167.762L161.422 61.42V71H158.622V57.02H161.422L167.762 66.62V57.02H170.562V71ZM182.829 57.04V59.3H179.109V71H176.309V59.3H172.589V57.04H182.829Z" fill="#24DC9F"/>
</g>
<defs>
<filter id="filter0_d_77_3147" x="0.0195312" y="-9.15991" width="252.811" height="154.3" filterUnits="userSpaceOnUse" color-interpolation-filters="sRGB">
<feFlood flood-opacity="0" result="BackgroundImageFix"/>
<feColorMatrix in="SourceAlpha" type="matrix" values="0 0 0 0 0 0 0 0 0 0 0 0 0 0 0 0 0 0 127 0" result="hardAlpha"/>
<feOffset dy="4"/>
<feGaussianBlur stdDeviation="35"/>
<feComposite in2="hardAlpha" operator="out"/>
<feColorMatrix type="matrix" values="0 0 0 0 0.607843 0 0 0 0 0.843137 0 0 0 0 0.764706 0 0 0 0.8 0"/>
<feBlend mode="normal" in2="BackgroundImageFix" result="effect1_dropShadow_77_3147"/>
<feBlend mode="normal" in="SourceGraphic" in2="effect1_dropShadow_77_3147" result="shape"/>
</filter>
</defs>
</svg>
